HIERARCHY
ROOT Hips
{
	OFFSET 4.076200 -17.275196 43.303001
	CHANNELS 6 Xposition Yposition Zposition Zrotation Xrotation Yrotation
	JOINT Chest
	{
		OFFSET -0.689800 0.941999 5.341000
		CHANNELS 6 Xposition Yposition Zposition Zrotation Xrotation Yrotation
		JOINT Chest2
		{
			OFFSET 0.000000 0.000000 4.278900
			CHANNELS 6 Xposition Yposition Zposition Zrotation Xrotation Yrotation
			JOINT Neck
			{
				OFFSET 0.000000 0.000000 9.970299
				CHANNELS 6 Xposition Yposition Zposition Zrotation Xrotation Yrotation
				JOINT Head
				{
					OFFSET 0.000000 0.000002 2.173901
					CHANNELS 6 Xposition Yposition Zposition Zrotation Xrotation Yrotation
					End Site
					{
						OFFSET 0.000000 0.000000 6.488197
					}
				}
			}
			JOINT LeftCollar
			{
				OFFSET 2.472300 -0.285801 5.433899
				CHANNELS 6 Xposition Yposition Zposition Zrotation Xrotation Yrotation
				JOINT LeftShoulder
				{
					OFFSET 5.327700 0.000000 0.000000
					CHANNELS 6 Xposition Yposition Zposition Zrotation Xrotation Yrotation
					JOINT LeftElbow
					{
						OFFSET 0.000000 0.000000 -10.713001
						CHANNELS 6 Xposition Yposition Zposition Zrotation Xrotation Yrotation
						JOINT LeftWrist
						{
							OFFSET 0.000000 -0.000002 -13.396900
							CHANNELS 6 Xposition Yposition Zposition Zrotation Xrotation Yrotation
							End Site
							{
								OFFSET 0.000000 0.000000 -2.173901
							}
						}
					}
				}
			}
			JOINT RightCollar
			{
				OFFSET -2.589400 -1.358400 6.105000
				CHANNELS 6 Xposition Yposition Zposition Zrotation Xrotation Yrotation
				JOINT RightShoulder
				{
					OFFSET -4.580200 0.000000 0.000000
					CHANNELS 6 Xposition Yposition Zposition Zrotation Xrotation Yrotation
					JOINT RightElbow
					{
						OFFSET 0.000000 0.000000 -10.761101
						CHANNELS 6 Xposition Yposition Zposition Zrotation Xrotation Yrotation
						JOINT RightWrist
						{
							OFFSET 0.000000 -0.000002 -13.028500
							CHANNELS 6 Xposition Yposition Zposition Zrotation Xrotation Yrotation
							End Site
							{
								OFFSET 0.000000 0.000000 -2.173901
							}
						}
					}
				}
			}
		}
	}
	JOINT LeftHip
	{
		OFFSET 2.532500 0.486900 -2.489700
		CHANNELS 6 Xposition Yposition Zposition Zrotation Xrotation Yrotation
		JOINT LeftKnee
		{
			OFFSET 0.000000 -0.000002 -18.199398
			CHANNELS 6 Xposition Yposition Zposition Zrotation Xrotation Yrotation
			JOINT LeftAnkle
			{
				OFFSET 0.000000 -0.000002 -16.083900
				CHANNELS 6 Xposition Yposition Zposition Zrotation Xrotation Yrotation
				End Site
				{
					OFFSET 0.000000 -8.641399 0.000000
				}
			}
		}
	}
	JOINT RightHip
	{
		OFFSET -2.112700 -0.049900 -2.711102
		CHANNELS 6 Xposition Yposition Zposition Zrotation Xrotation Yrotation
		JOINT RightKnee
		{
			OFFSET 0.000000 -0.000002 -19.127298
			CHANNELS 6 Xposition Yposition Zposition Zrotation Xrotation Yrotation
			JOINT RightAnkle
			{
				OFFSET 0.000000 -0.000002 -14.874901
				CHANNELS 6 Xposition Yposition Zposition Zrotation Xrotation Yrotation
				End Site
				{
					OFFSET 0.000000 -8.198299 0.000000
				}
			}
		}
	}
}
MOTION
Frames: 6
Frame Time: 0.041667
-11.566000 -40.059196 37.146702 988.755997 40.935697 -3.396131 -0.689797 0.942005 5.340995 -26.930492 -20.249143 6.622804 0.000004 -0.000006 4.278892 5.622851 -5.930647 -0.806412 0.000008 -0.000002 9.970305 49.920879 -27.991876 1.499649 -0.000001 -0.000006 2.173897 4.568043 -5.782889 6.929724 2.472303 -0.285810 5.433908 -17.172223 11.297493 -5.951196 5.327699 -0.000000 0.000004 337.456042 -62.959106 262.046737 -0.000001 0.000001 -10.712990 226.033936 -166.904388 194.878261 -0.000002 0.000003 -13.396907 92.662649 -185.866209 86.635042 -2.589397 -1.358405 6.105011 2.277172 5.298846 11.624578 -4.580197 -0.000004 -0.000003 -375.173876 -47.619225 -251.360032 0.000003 -0.000005 -10.761097 -43.859824 -14.418676 -11.512943 0.000000 -0.000008 -13.028512 438.876237 6.869940 1498.068451 2.532506 0.486900 -2.489701 105.908599 -45.225141 92.469464 -0.000001 -0.000003 -18.199398 -129.110629 37.494897 77.780603 -0.000002 0.000001 -16.083899 38.665178 19.747494 16.354632 -2.112697 -0.049897 -2.711104 -92.218120 -42.765375 -108.104464 0.000001 0.000004 -19.127293 697.824363 108.883386 -644.183937 -0.000002 -0.000001 -14.874896 340.233033 42.195194 2.633603
-11.884802 -40.092598 36.803703 987.219150 41.536590 -2.372097 -0.689797 0.942000 5.341002 -26.707078 -20.035206 7.157884 -0.000004 0.000001 4.278903 5.502205 -6.100550 -0.828682 0.000002 -0.000008 9.970294 50.137034 -27.906577 1.391893 -0.000000 -0.000002 2.173893 4.632481 -5.706977 6.982287 2.472304 -0.285804 5.433898 -17.843504 11.182387 -4.077049 5.327697 -0.000002 0.000002 338.353501 -62.151381 262.386280 0.000005 -0.000001 -10.713001 226.649514 -166.852123 194.620080 -0.000001 -0.000005 -13.396899 92.506354 -185.264223 86.989071 -2.589399 -1.358402 6.104997 1.333777 4.303866 12.460109 -4.580199 -0.000003 -0.000001 -374.612927 -46.610850 -250.664773 0.000001 -0.000008 -10.761095 -44.881211 -15.404042 -12.522250 -0.000002 0.000004 -13.028500 440.130259 6.938352 1498.412255 2.532500 0.486890 -2.489695 108.174378 -44.715172 94.463265 -0.000000 -0.000004 -18.199396 -132.226657 35.532922 80.298047 0.000001 0.000002 -16.083897 40.808980 18.472622 18.503636 -2.112697 -0.049904 -2.711096 -92.427179 -43.188717 -109.519986 0.000001 -0.000001 -19.127298 697.982823 110.709450 -645.220322 0.000001 0.000000 -14.874897 339.400132 41.884124 1.487354
-12.178101 -40.125893 36.473301 985.607772 42.037386 -1.318615 -0.689801 0.942007 5.340998 -26.080405 -19.729075 7.865857 0.000002 0.000002 4.278896 5.516151 -6.321481 -0.727805 0.000003 -0.000005 9.970316 49.999956 -27.952547 1.226432 0.000005 -0.000001 2.173896 4.561609 -5.713682 7.157143 2.472301 -0.285804 5.433907 -18.354755 11.189869 -2.950056 5.327701 -0.000005 -0.000002 338.835931 -61.807543 262.793086 -0.000005 -0.000001 -10.712997 227.169155 -166.876835 194.485689 0.000004 -0.000014 -13.396900 92.541646 -185.394488 86.910373 -2.589401 -1.358396 6.105018 -0.233705 2.899807 12.855723 -4.580203 -0.000004 0.000007 -373.010209 -45.822137 -249.684778 0.000000 -0.000001 -10.761104 -45.805567 -16.299266 -13.339896 -0.000004 -0.000003 -13.028500 440.769948 7.375908 1497.975560 2.532498 0.486904 -2.489699 110.194775 -44.065956 96.115754 -0.000001 -0.000007 -18.199402 -134.994058 33.910175 82.511807 0.000002 -0.000001 -16.083900 42.797948 16.959044 20.707684 -2.112705 -0.049896 -2.711102 -92.835610 -43.556724 -111.153877 -0.000001 0.000003 -19.127289 697.629347 113.795029 -645.614288 0.000001 -0.000001 -14.874900 338.084146 41.630256 -0.983783
-12.456202 -40.160297 36.153000 984.319871 42.456268 -0.507646 -0.689792 0.942001 5.340999 -25.545770 -19.390396 8.637460 0.000003 0.000002 4.278908 5.299171 -6.494220 -0.787961 -0.000002 -0.000003 9.970304 50.131881 -27.960583 1.293595 -0.000001 -0.000002 2.173901 4.493932 -5.442018 7.377708 2.472297 -0.285806 5.433901 -19.147307 8.973758 -2.226654 5.327698 -0.000001 -0.000003 341.251988 -59.791954 265.060463 0.000009 -0.000003 -10.712990 227.607926 -166.965573 194.237275 -0.000001 -0.000005 -13.396900 92.380276 -185.175827 87.061628 -2.589403 -1.358404 6.105001 -1.297401 0.553391 13.321662 -4.580198 -0.000000 0.000005 -371.073604 -44.621622 -248.599925 -0.000000 -0.000003 -10.761106 -46.881387 -16.920580 -14.143895 -0.000003 0.000005 -13.028502 441.333411 7.807592 1497.172220 2.532502 0.486900 -2.489700 111.668880 -43.806470 97.532362 -0.000003 0.000000 -18.199394 -136.845094 32.987929 84.370472 0.000002 0.000001 -16.083906 44.388723 15.791109 22.214960 -2.112694 -0.049904 -2.711101 -93.533888 -43.761551 -112.837997 -0.000009 -0.000000 -19.127295 697.826876 115.685714 -646.749957 0.000002 -0.000002 -14.874898 337.800283 41.497648 -3.544599
-12.718803 -40.192291 35.850796 983.210867 42.799126 0.307205 -0.689791 0.941995 5.341001 -25.099439 -19.027061 9.250171 -0.000006 0.000000 4.278905 5.144177 -6.661000 -0.831514 -0.000006 -0.000008 9.970301 50.249872 -27.904388 1.406752 0.000005 0.000002 2.173892 4.593280 -5.383984 7.330239 2.472298 -0.285801 5.433903 -19.411377 9.100991 -2.481324 5.327701 -0.000008 0.000001 342.758345 -60.025772 266.778501 0.000004 0.000002 -10.712997 227.881284 -167.179918 193.947839 -0.000000 -0.000002 -13.396900 92.301660 -185.459102 86.883695 -2.589405 -1.358405 6.105007 -2.004646 -0.176102 14.271029 -4.580203 -0.000004 -0.000004 -371.135568 -44.023083 -249.085524 0.000000 0.000005 -10.761105 -48.092124 -17.488368 -14.798512 0.000001 -0.000003 -13.028484 440.793116 8.166735 1496.218398 2.532506 0.486891 -2.489695 112.966862 -43.984967 98.948554 0.000005 -0.000007 -18.199398 -138.311945 31.941455 86.140133 0.000007 0.000006 -16.083902 46.023976 14.548202 24.117099 -2.112696 -0.049905 -2.711099 -94.241523 -43.568844 -114.186474 -0.000004 0.000005 -19.127298 698.138060 117.662303 -647.727002 -0.000002 -0.000001 -14.874898 337.248486 41.302038 -4.564497
-12.974401 -40.226196 35.570999 982.317369 43.074305 0.997128 -0.689799 0.942005 5.341002 -24.808243 -18.748234 9.829149 -0.000005 -0.000001 4.278903 5.058045 -6.725935 -0.857036 0.000002 -0.000001 9.970295 50.414787 -27.842105 1.535785 -0.000003 0.000000 2.173897 4.655468 -5.235438 7.351845 2.472300 -0.285802 5.433896 -19.720605 9.587079 -1.922518 5.327698 -0.000008 -0.000010 342.394296 -60.230801 266.145206 0.000005 0.000005 -10.712991 228.054525 -167.440926 193.655466 0.000001 -0.000001 -13.396895 92.101993 -185.581171 86.789438 -2.589401 -1.358402 6.104998 -3.029425 -0.953498 14.401300 -4.580198 -0.000000 0.000001 -369.431900 -44.104502 -248.298905 -0.000003 -0.000001 -10.761101 -48.085321 -17.741106 -14.975347 0.000001 0.000005 -13.028496 440.035566 8.295539 1495.572536 2.532498 0.486899 -2.489700 114.153846 -44.258174 100.375224 0.000001 -0.000007 -18.199400 -139.389626 31.622198 87.911973 0.000001 0.000002 -16.083904 47.086016 13.808540 25.359888 -2.112699 -0.049898 -2.711099 -94.894899 -43.251254 -115.257093 -0.000004 -0.000002 -19.127296 698.474378 119.627362 -648.530724 0.000004 0.000000 -14.874897 336.817337 40.840799 -5.577534
